Simulation
nRows=39
nColumns=15
endheader
time  TH_x TH_y TH_z SC_y  SC_z  SC_x  AC_y  AC_z  AC_x  GH_y  GH_z  GH_yy  EL_x  PS_y
8.073123595505619  0.000000  0.000000  0.000000  -23.853481551046027  5.822309315870367  5.212008306217614  58.73781685801967  5.703447967349927  3.4266083819995408  -121.52641862901325  3.34526851470648  177.15713311244076  16.764178143550378  120.000000
8.113288389513109  0.000000  0.000000  0.000000  -23.58738252342665  5.879257628151154  5.16975899134406  58.692151436248906  5.400317861338295  3.4799213213351163  -114.41344271757144  2.6088597722150926  169.60235653750877  16.277827089423564  120.000000
8.153453183520599  0.000000  0.000000  0.000000  -23.295473567134394  5.9622473211464575  5.157428213112222  58.65573052900879  5.147515013589398  3.562937119523265  -100.78474047494339  1.7823426042041008  155.33931749609528  15.733667446775492  120.000000
8.19361797752809  0.000000  0.000000  0.000000  -22.981266706779977  6.081818727821291  5.196615948167107  58.63482657228822  4.968693138751852  3.6815208201644016  -62.21845015830712  1.1058940119348293  115.94255419438522  15.15196652079495  120.000000
8.23378277153558  0.000000  0.000000  0.000000  -22.65287966744441  6.249288342094126  5.30695666368362  58.634006792202335  4.8832628198262915  3.8410857037181816  -2.39555513001203  1.4991900754516378  55.09357064314664  14.555765838445467  120.000000
8.273947565543072  0.000000  0.000000  0.000000  -22.322632235550348  6.473702192340417  5.5039455769701355  58.65483896294254  4.903438838216218  4.046410831037613  20.489270524086734  2.8171298051692646  30.993471866209507  13.967830191907414  120.000000
8.314112359550561  0.000000  0.000000  0.000000  -22.005193666781345  6.759834389105959  5.796501658557202  58.69844298402979  5.033149708490691  4.302617832786481  28.553538829986962  4.504562937723579  21.53781386805145  13.408480770397059  120.000000
8.354277153558053  0.000000  0.000000  0.000000  -21.71532553733301  7.107238429695531  6.186409975034251  58.7660061284442  5.266711094528521  4.617002683614345  32.064957673256146  6.442737602590127  16.479575505031796  12.893783836754821  120.000000
8.394441947565543  0.000000  0.000000  0.000000  -21.465190478377618  7.51000006727735  6.669855234493429  58.85886358280731  5.589838304759113  4.997331607058291  33.699096933451386  8.591074748605552  13.171153329153835  12.434167535624765  120.000000
8.434606741573035  0.000000  0.000000  0.000000  -21.26413530736694  7.95943470850251  7.239348957686867  58.97872109200416  5.983030924521408  5.449212175981704  34.39481960146225  10.919719545147125  10.70645999337268  12.033851938812894  120.000000
8.474771535580524  0.000000  0.000000  0.000000  -21.118576165486672  8.446198838289455  7.885575282498354  59.125992508184666  6.424683019142129  5.97595352694967  34.55914950976792  13.398608281488231  8.713372267693567  11.691688790350264  120.000000
8.514936329588014  0.000000  0.000000  0.000000  -21.031864815408355  8.960002147612826  8.598319978029826  59.300106755020494  6.8934037668755215  6.5777095305457935  34.399710272740776  15.99662649458522  7.018259517852802  11.402783462598622  120.000000
8.555101123595506  0.000000  0.000000  0.000000  -21.004812280061184  9.490505561620928  9.366778088396652  59.50022197724803  7.369613637191658  7.251098957449668  34.03705368527065  18.68290307009216  5.530992686207728  11.160556766480928  120.000000
8.595265917602996  0.000000  0.000000  0.000000  -21.036453388835994  10.02820373313468  10.180156779315535  59.72439440880619  7.83660837390468  7.989547367698423  33.54575709341833  21.427317374260262  4.2020859288826715  10.958409995141922  120.000000
8.635430711610487  0.000000  0.000000  0.000000  -21.12540321407883  10.564524376824801  11.028107828979755  59.96961542970555  8.281309693678601  8.783218794026942  32.97388489130948  24.201276559757183  3.0019866229604655  10.790386198237142  120.000000
8.675595505617977  0.000000  0.000000  0.000000  -21.2703857495875  11.092275961062528  11.900635218838186  60.23152076027389  8.694371505006542  9.619311303727002  32.35188946833678  26.977552584310686  1.9120657507413856  10.651514726178966  120.000000
8.715760299625469  0.000000  0.000000  0.000000  -21.470796216488207  11.605720700521012  12.787888525004268  60.50406041728353  9.06969035787854  10.482454583305023  31.698490408944267  29.730190867081294  0.919354506316135  10.537781275605033  120.000000
8.755925093632959  0.000000  0.000000  0.000000  -21.726029394747936  12.100424009345929  13.680167873781429  60.77983174960151  9.404035323731758  11.355571606646363  31.02552439361711  32.43471521376329  0.012810248963251274  10.446023762837223  120.000000
8.79608988764045  0.000000  0.000000  0.000000  -22.034126692095658  12.572869502959051  14.56788626150497  61.05123077557906  9.69659204843251  12.221293739927264  30.34164013018619  35.06837525620398  -0.818802865266508  10.37393500996054  120.000000
8.83625468164794  0.000000  0.000000  0.000000  -22.390846190394928  13.020073835290145  15.441527748037638  61.31155652087947  9.948226883260727  13.063415684498192  29.655002867305942  37.61022665595635  -1.5878931966861425  10.320180894492125  120.000000
8.87641947565543  0.000000  0.000000  0.000000  -22.789394165007863  13.439349133310383  16.29155850979908  61.555583082535335  10.161213957659282  13.86792020531776  28.973717090249224  40.04118968004989  -2.3069625706080013  10.284094281464677  120.000000
8.916584269662922  0.000000  0.000000  0.000000  -23.221278451816627  13.828484636928419  17.108711404698788  61.779367090657495  10.33907039531954  14.623424375506588  28.30549480608767  42.34421111879624  -2.987029554623649  10.264996792241805  120.000000
8.956749063670411  0.000000  0.000000  0.000000  -23.67728510789325  14.18592973383719  17.88445988685525  61.979881918544166  10.486348133953827  15.321199961439966  27.657720159917304  44.50472332450249  -3.6365228755775143  10.261699363722743  120.000000
8.996913857677903  0.000000  0.000000  0.000000  -24.14814135828125  14.51047168115111  18.611652739028855  62.15463182063302  10.608434369600543  15.955443081854055  27.037735330862624  46.51116481028419  -4.26052552337448  10.272005894012647  120.000000
9.037078651685393  0.000000  0.000000  0.000000  -24.62518790219048  14.80131917240303  19.285281693901123  62.301273575079634  10.711571586940847  16.523102602927054  26.45289261608844  48.35548306383041  -4.860294003965399  10.292498069646856  120.000000
9.077243445692885  0.000000  0.000000  0.000000  -25.100886497789844  15.058068864942  19.902824450832856  62.41744136297881  10.802780319838543  17.023459352159477  25.9104586040859  50.03315722603413  -5.433275241410715  10.318652713296624  120.000000
9.117408239700374  0.000000  0.000000  0.000000  -25.568550161305094  15.280212697464163  20.463788190774117  62.500766497873656  10.889115727368798  17.4577740088151  25.417860579410974  51.54252253478127  -5.974042056620928  10.345358107845875  120.000000
9.157573033707866  0.000000  0.000000  0.000000  -26.021835501392477  15.46711114469924  20.96887155496227  62.549311112995355  10.976802803648004  17.828647232848834  24.982931283195214  52.88355617482896  -6.475694878323626  10.367766868723672  120.000000
9.197737827715356  0.000000  0.000000  0.000000  -26.454171617650157  15.618140232894593  21.419069020170788  62.56204823038902  11.070590024147256  18.139174480759912  24.61385403201983  54.05653671712279  -6.931308218763318  10.382109939041625  120.000000
9.237902621722846  0.000000  0.000000  0.000000  -26.858116862849457  15.73275603857263  21.81481534566653  62.53928174336662  11.173270402952628  18.392304462397394  24.319034021223832  55.06076325004153  -7.33531542678504  10.386328229697133  120.000000
9.278067415730337  0.000000  0.000000  0.000000  -27.22489501417026  15.810573171345556  22.155368360954114  62.48294250689338  11.285404089551353  18.59041322437998  24.106979373230654  55.893627138459614  -7.684500939416003  10.380355193324137  120.000000
9.318232209737827  0.000000  0.000000  0.000000  -27.54434789856025  15.851474103288298  22.438572505807755  62.39660244479754  11.40545163989764  18.73499619365992  23.98602264306821  56.550154204743656  -7.978344552633711  10.365824092714625  120.000000
9.358397003745319  0.000000  0.000000  0.000000  -27.805372259251246  15.85571168745426  22.66094955421432  62.28517426753562  11.530195441255108  18.826458619698354  23.9638880826948  57.023117838218695  -8.218663242954161  10.345264785651501  120.000000
9.398561797752809  0.000000  0.000000  0.000000  -27.99671302269065  15.823925078782331  22.817984053411507  62.1543607970112  11.655345308198791  18.864045587666375  24.04721203135566  57.30349542848093  -8.408841139642666  10.321064302527077  120.000000
9.4387265917603  0.000000  0.000000  0.000000  -28.107922266142673  15.75713783448344  22.90441985329161  62.01002420383522  11.776138045234392  18.845842470460465  24.241096360720686  57.381168342534224  -8.552829280315278  10.294476976937625  120.000000
9.47889138576779  0.000000  0.000000  0.000000  -28.13029284938393  15.656698388404216  22.91447234139169  61.85762482995154  11.887857474927387  18.76888414537821  24.548803005904023  57.24560984166826  -8.654204481673938  10.26499073146966  120.000000
9.519056179775282  0.000000  0.000000  0.000000  -28.05757275967802  15.524203885999336  22.84187960377296  61.70184266064153  11.986157592212315  18.629337250506115  24.971624839676213  56.8865239745091  -8.715429234061027  10.230303781507299  120.000000
9.559220973782772  0.000000  0.000000  0.000000  -27.886475769821143  15.361386197974662  22.679876141860493  61.546380081186236  12.067226092416986  18.422785327596344  25.508889755607697  56.29431594150718  -8.737425811154859  10.187030545463937  120.000000
9.599385767790261  0.000000  0.000000  0.000000  -27.616997522724965  15.170060733158005  22.421141911099717  61.393928227321425  12.127828889242096  18.144486289819564  26.157986084911887  55.46050931842753  -8.719328617638446  10.131956302078866  120.000000
